<svg width="70" height="71" viewBox="0 0 70 71" fill="none" xmlns="http://www.w3.org/2000/svg">
<g clip-path="url(#clip0_3_7680)">
<path d="M67.3163 48.5598L48.8468 29.8988L50.8966 19.772C51.4256 19.9792 51.9879 20.0874 52.5556 20.0915H52.5696C55.1777 20.1224 57.3169 18.0269 57.3479 15.4109C57.3788 12.7949 55.2894 10.6493 52.6813 10.6182C50.0732 10.5874 47.934 12.6829 47.9031 15.2989C47.8965 15.8586 47.9888 16.4151 48.176 16.9425L37.326 18.2707L19.6276 0.426496C19.4105 0.204306 19.1141 0.0779261 18.804 0.0754395C18.4977 0.0770485 18.2044 0.199333 17.9873 0.415964L14.6786 3.71589C14.2232 4.17285 14.2232 4.91358 14.6786 5.37054L16.459 7.18199C9.56162 19.9032 11.8019 35.6566 21.9703 45.9363C22.0636 46.0258 22.1718 46.0982 22.29 46.1504C22.2165 46.5464 22.1781 46.9482 22.1756 47.351V60.9252H8.17562C4.95562 60.929 2.34608 63.5464 2.34229 66.7761V69.1165C2.34229 69.7627 2.86466 70.2867 3.50895 70.2867H57.1756C57.8199 70.2867 58.3423 69.7627 58.3423 69.1165V66.7761C58.3385 63.5464 55.729 60.929 52.509 60.9252H38.509V54.9093C40.7021 55.3706 42.9367 55.6058 45.1776 55.6114C50.5548 55.6055 55.8464 54.261 60.5776 51.6983L62.3673 53.5039C62.5844 53.7261 62.8808 53.8524 63.191 53.8549C63.4972 53.8533 63.7905 53.731 64.0076 53.5144L67.3163 50.2145C67.7717 49.7575 67.7717 49.0168 67.3163 48.5598ZM50.9246 13.7514C51.8383 12.8398 53.3157 12.8439 54.2244 13.7603C55.1332 14.6767 55.1291 16.1586 54.2155 17.0701C53.7781 17.5064 53.1864 17.7513 52.5695 17.7511H52.5625C51.2739 17.7444 50.2345 16.6912 50.2412 15.3986C50.2445 14.7799 50.4918 14.1878 50.9291 13.7514H50.9246ZM48.1783 21.4407L46.8693 27.9037L44.298 25.3094L48.1783 21.4407ZM46.853 19.4619L42.653 23.65L39.4038 20.3735L46.853 19.4619ZM52.509 63.2656C54.442 63.2656 56.009 64.8373 56.009 66.7761V67.9463H4.67562V66.7761C4.67562 64.8373 6.2426 63.2656 8.17562 63.2656H52.509ZM36.1756 58.5848V60.9252H24.509V58.5848H36.1756ZM24.509 56.2444V47.351C24.509 44.5121 27.1258 42.2022 30.3423 42.2022C33.5588 42.2022 36.1756 44.5121 36.1756 47.351V56.2444H24.509ZM38.509 52.5233V47.351C38.509 43.2214 34.8456 39.8618 30.3423 39.8618C27.4306 39.8171 24.7079 41.3036 23.165 43.7808C14.2887 34.4036 12.2899 20.4241 18.1805 8.92279L58.872 49.9711C52.5886 53.1771 45.3857 54.0798 38.509 52.5233ZM63.2038 51.0231L61.56 49.3649L18.7923 6.20956L17.1415 4.55024L18.7923 2.90027L36.15 20.4086C36.1581 20.4086 36.1628 20.4238 36.171 20.4297L64.8593 49.3731L63.2038 51.0231Z" fill="#212121"/>
<path d="M30.3527 44.5425H30.3422C28.4091 44.5396 26.8398 46.1089 26.8369 48.0478C26.834 49.9866 28.3986 51.5607 30.3317 51.5636H30.3422C32.2752 51.5665 33.8445 49.9972 33.8474 48.0583C33.8503 46.1195 32.2857 44.5454 30.3527 44.5425ZM31.1693 48.8827C30.9497 49.1018 30.6521 49.2244 30.3422 49.2232C29.6979 49.2199 29.1783 48.6933 29.1816 48.0471C29.1832 47.7377 29.3069 47.4416 29.5255 47.2234C29.7426 47.0068 30.0359 46.8845 30.3422 46.8829C30.9865 46.8862 31.5061 47.4128 31.5027 48.059C31.5011 48.3684 31.3774 48.6645 31.1588 48.8827H31.1693Z" fill="#2196F3"/>
</g>
<defs>
<clipPath id="clip0_3_7680">
<rect width="70" height="70.2113" fill="white" transform="translate(0 0.0754395)"/>
</clipPath>
</defs>
</svg>
