<svg width="70" height="71" viewBox="0 0 70 71" fill="none" xmlns="http://www.w3.org/2000/svg">
<path d="M69.9434 10.3195C69.8058 9.89703 69.4418 9.5882 69.002 9.52375L64.823 8.91405L62.9528 5.11559C62.5608 4.31515 61.2529 4.31515 60.8609 5.11559L58.9907 8.91405L54.8116 9.52389C54.3718 9.5882 54.0078 9.89607 53.8689 10.3197C53.7325 10.7433 53.8455 11.209 54.1641 11.5192L57.1893 14.4763L56.4754 18.6516C56.4007 19.0905 56.5804 19.5339 56.9386 19.7961C57.3014 20.0607 57.775 20.0933 58.1682 19.885L61.9063 17.9132L65.6444 19.885C65.8147 19.9751 66.0026 20.0195 66.1881 20.0195C66.4296 20.0195 66.6712 19.9447 66.8742 19.796C67.2335 19.5339 67.4131 19.0903 67.3374 18.6515L66.6235 14.4762L69.6487 11.519C69.9656 11.2077 70.08 10.7431 69.9434 10.3195ZM64.5558 13.231C64.2817 13.499 64.1556 13.8875 64.221 14.2666L64.6387 16.7112L62.4501 15.5573C62.2797 15.4673 62.0931 15.4228 61.9063 15.4228C61.7197 15.4228 61.5342 15.4673 61.3626 15.5573L59.1738 16.7112L59.5915 14.2666C59.6568 13.8875 59.5308 13.5002 59.2567 13.231L57.4845 11.4992L59.9322 11.1422C60.3126 11.0872 60.6404 10.8474 60.8108 10.5021L61.9051 8.27872L62.9994 10.5021C63.1697 10.8472 63.4976 11.0872 63.878 11.1422L66.3257 11.4992L64.5558 13.231Z" fill="#2196F3"/>
<path d="M57.1669 45.4211H54.8335V47.7616H57.1669V45.4211Z" fill="#2196F3"/>
<path d="M57.1669 50.1021H54.8335V52.4425H57.1669V50.1021Z" fill="#2196F3"/>
<path d="M59.5004 47.7616H57.167V50.1021H59.5004V47.7616Z" fill="#2196F3"/>
<path d="M54.8339 47.7616H52.5005V50.1021H54.8339V47.7616Z" fill="#2196F3"/>
<path d="M49.0004 58.2935H46.667V60.6339H49.0004V58.2935Z" fill="#2196F3"/>
<path d="M49.0004 62.9742H46.667V65.3147H49.0004V62.9742Z" fill="#2196F3"/>
<path d="M51.3334 60.6339H49V62.9744H51.3334V60.6339Z" fill="#2196F3"/>
<path d="M46.6669 60.6339H44.3335V62.9744H46.6669V60.6339Z" fill="#2196F3"/>
<path d="M34.9999 53.6127H32.6665V55.9531H34.9999V53.6127Z" fill="#2196F3"/>
<path d="M34.9999 58.2935H32.6665V60.6339H34.9999V58.2935Z" fill="#2196F3"/>
<path d="M37.3334 55.953H35V58.2935H37.3334V55.953Z" fill="#2196F3"/>
<path d="M32.6664 55.953H30.333V58.2935H32.6664V55.953Z" fill="#2196F3"/>
<path d="M12.8329 13.8256H10.4995V16.166H12.8329V13.8256Z" fill="#2196F3"/>
<path d="M12.8329 18.5065H10.4995V20.8469H12.8329V18.5065Z" fill="#2196F3"/>
<path d="M15.1664 16.166H12.833V18.5065H15.1664V16.166Z" fill="#2196F3"/>
<path d="M10.4994 16.166H8.16602V18.5065H10.4994V16.166Z" fill="#2196F3"/>
<path d="M54.0635 31.4606C53.4347 30.6099 52.5119 30.0623 51.4642 29.9147C50.4118 29.765 49.3734 30.0423 48.5334 30.6871L45.7952 32.7922L45.794 32.7934L41.6428 35.9027L38.6724 34.716C43.9691 32.3324 47.6711 27.0185 47.6711 20.8491C47.6711 12.4611 40.8401 5.63647 32.4436 5.63647C24.047 5.63647 17.2161 12.4611 17.2161 20.8491C17.2161 23.8894 18.1226 26.7165 19.6662 29.0955L13.6204 29.0428C13.6168 29.0428 13.6134 29.0428 13.6099 29.0428C13.5911 29.0428 13.5761 29.0522 13.5586 29.0534C13.4431 29.0581 13.3298 29.0815 13.2191 29.1213C13.1911 29.1318 13.162 29.1377 13.1352 29.1505C13.1212 29.1564 13.1071 29.1575 13.0932 29.1645L6.02075 32.6669C6.01952 32.6669 6.01843 32.6669 6.01843 32.668L1.8766 34.6657C1.83107 34.6856 1.78445 34.7125 1.73892 34.7429C0.0880191 35.8452 -0.474314 38.0101 0.429958 39.7794C0.911763 40.7203 1.73195 41.4131 2.73999 41.7301C3.12856 41.8518 3.52518 41.9116 3.91949 41.9116C4.55305 41.9116 5.18074 41.7559 5.75578 41.4482L8.79154 39.8287L13.7441 37.2636L16.7122 37.246L4.80844 49.1284C4.80735 49.1296 4.80612 49.1296 4.80489 49.1307L1.87647 52.0562C1.18466 52.7466 0.8043 53.6628 0.8043 54.64C0.8043 55.616 1.18466 56.5345 1.87647 57.2262C2.587 57.9353 3.52149 58.2911 4.45598 58.2911C5.3917 58.2911 6.32495 57.9353 7.03782 57.2262L9.91251 54.3545L13.7206 51.5027L15.6912 53.471L11.8375 57.3198C11.8364 57.321 11.8352 57.321 11.834 57.3221L8.90556 60.2476C8.21375 60.938 7.8334 61.8542 7.8334 62.8314C7.8334 63.8074 8.21375 64.7259 8.90556 65.4176C9.6161 66.1267 10.5518 66.4825 11.4863 66.4825C12.4208 66.4825 13.3565 66.1267 14.0681 65.4176L16.9977 62.4922L21.6842 57.8114C21.6854 57.8101 21.6854 57.809 21.6865 57.8078L23.8951 55.6137L23.8869 55.6054C23.9008 55.5915 23.9207 55.5867 23.9347 55.5716L35.2353 43.1569L42.8281 44.2405C42.8829 44.2487 42.9377 44.2522 42.9925 44.2522C43.1338 44.2522 43.2702 44.2183 43.402 44.168C43.4406 44.154 43.4743 44.1352 43.5106 44.1165C43.5526 44.0954 43.5968 44.0838 43.6366 44.0569L50.6659 39.3761C50.6916 39.3586 50.7055 39.3304 50.73 39.3118C50.758 39.2896 50.793 39.2803 50.8186 39.2556L53.5999 36.6425C55.0471 35.2824 55.2466 33.0544 54.0635 31.4606ZM4.66024 39.3828C4.28111 39.5865 3.85058 39.6273 3.43878 39.4964C3.03039 39.3688 2.69912 39.0891 2.50538 38.7112C2.15305 38.023 2.35718 37.1851 2.97433 36.7323L5.84793 35.3456L6.53974 37.3736L6.83027 38.2254L4.66024 39.3828ZM12.3102 35.3726L8.92333 37.1279L8.36456 35.4896L7.96328 34.3123L12.3967 32.117L12.3102 35.3726ZM45.3402 20.8468C45.3402 22.8618 44.8607 24.7623 44.03 26.4625L34.8832 22.2955C34.7875 21.0375 34.1366 19.9363 33.1589 19.2505L36.3614 8.58649C41.5626 10.2459 45.3402 15.1128 45.3402 20.8468ZM19.5519 20.8468C19.5519 13.7494 25.3363 7.97446 32.446 7.97446C32.9991 7.97446 33.5403 8.02123 34.0759 8.08911L30.9433 18.5192C30.9014 18.518 30.8617 18.5063 30.8185 18.5063C28.5597 18.5063 26.7222 20.3435 26.7222 22.6021C26.7222 24.8605 28.5597 26.6978 30.8185 26.6978C32.3375 26.6978 33.65 25.8565 34.3582 24.6253L42.8073 28.4754C40.4564 31.6489 36.6938 33.7191 32.4459 33.7191C25.3363 33.7191 19.5519 27.9441 19.5519 20.8468ZM32.5814 22.6021C32.5814 23.5698 31.7903 24.3574 30.8185 24.3574C29.8467 24.3574 29.0556 23.5698 29.0556 22.6021C29.0556 21.6343 29.8467 20.8468 30.8185 20.8468C31.7903 20.8468 32.5814 21.6343 32.5814 22.6021ZM5.39183 55.5668C4.87503 56.0805 4.03843 56.0794 3.52286 55.568C3.2743 55.3187 3.13785 54.99 3.13785 54.64C3.13785 54.2913 3.2743 53.9625 3.52286 53.7156L5.6274 51.6127L7.48941 53.4722L5.39183 55.5668ZM12.4222 63.7583C11.9054 64.272 11.0677 64.2732 10.552 63.7595C10.3034 63.5102 10.1669 63.1815 10.1669 62.8316C10.1669 62.4828 10.3034 62.154 10.552 61.9071L12.6579 59.8031L13.5388 60.682L14.5211 61.6626L12.4222 63.7583ZM20.0383 56.1473C20.0371 56.1484 20.036 56.1484 20.0348 56.1496L16.1742 60.0113L15.2933 59.1324L14.311 58.1517L18.168 54.3006C18.168 54.3006 18.168 54.3006 18.168 54.2995C18.1692 54.2983 18.1703 54.2983 18.1715 54.2972C18.259 54.2094 18.3139 54.1041 18.3676 54C18.3828 53.9696 18.4119 53.9438 18.4248 53.9123C18.461 53.8222 18.4667 53.7251 18.4808 53.6302C18.4878 53.5763 18.5112 53.5261 18.5112 53.471C18.5112 53.3925 18.4831 53.3166 18.4669 53.2392C18.4529 53.169 18.4529 53.0976 18.426 53.0298C18.3817 52.9198 18.3058 52.8227 18.2265 52.7278C18.2044 52.7021 18.1962 52.6693 18.1717 52.6447C18.1717 52.6447 18.1717 52.6447 18.1705 52.6447C18.1692 52.6436 18.1692 52.6412 18.1681 52.6401L14.6529 49.1295C14.6156 49.092 14.5677 49.0768 14.5257 49.0453C14.464 48.9973 14.4045 48.9528 14.3356 48.9188C14.2691 48.886 14.2014 48.8662 14.1314 48.8474C14.0568 48.8263 13.9845 48.8099 13.9063 48.804C13.835 48.7994 13.7686 48.8064 13.6975 48.8146C13.6193 48.8239 13.5459 48.8345 13.47 48.859C13.3964 48.8825 13.3312 48.9187 13.2635 48.9574C13.2203 48.9819 13.1714 48.9901 13.1305 49.0206L9.25133 51.9251L7.28077 49.9568L12.5285 44.7213L22.0674 54.131L20.0383 56.1473ZM34.9544 40.752C34.9207 40.7473 34.8891 40.7602 34.8553 40.7579C34.7701 40.7532 34.6885 40.7591 34.6034 40.7731C34.5369 40.7847 34.4739 40.7976 34.4108 40.8199C34.3362 40.8456 34.2685 40.8807 34.1996 40.9228C34.1343 40.9626 34.0748 41.0047 34.0176 41.0574C33.9896 41.0819 33.9558 41.0937 33.9301 41.1217L23.6527 52.4119L14.185 43.0724L20.3825 36.8891C20.8387 36.4327 20.841 35.6919 20.386 35.2332C20.1562 35.0027 19.854 34.8891 19.5519 34.8903V34.8892L14.6984 34.9185L14.7591 31.3915L21.5492 31.4501C24.3166 34.289 28.176 36.0595 32.446 36.0595C33.4027 36.0595 34.3361 35.9601 35.2448 35.7903C35.3323 35.8606 35.4186 35.932 35.5284 35.9764L40.7995 38.0828L41.1331 39.7468L41.5228 41.6893L34.9544 40.752ZM43.7944 41.1428L43.1096 37.7246L46.2736 35.3549L47.102 36.4572L48.3445 38.1119L43.7944 41.1428ZM52.0055 34.9313L50.1726 36.6539L48.1356 33.9414L49.9544 32.543C50.2938 32.281 50.7221 32.1744 51.1421 32.2294C51.5644 32.2891 51.9378 32.5103 52.1921 32.8531C52.6658 33.4932 52.5853 34.3861 52.0055 34.9313Z" fill="#212121"/>
<path d="M29.7547 41.0809L25.0669 36.4001C24.6131 35.9449 23.8757 35.9449 23.4207 36.4001L18.7341 41.0809C18.5148 41.3021 18.3911 41.5992 18.3911 41.9105C18.3911 42.2218 18.5136 42.5202 18.7341 42.7402L23.4207 47.4209C23.6482 47.6479 23.9469 47.7614 24.2444 47.7614C24.5419 47.7614 24.8405 47.6479 25.0669 47.4209L29.7547 42.7402C29.974 42.5202 30.0988 42.2218 30.0988 41.9105C30.0988 41.5992 29.9751 41.3008 29.7547 41.0809ZM24.2444 44.9402L21.211 41.9105L24.2444 38.8808L27.2789 41.9105L24.2444 44.9402Z" fill="#212121"/>
<path d="M37.547 11.519L36.9834 13.7916C37.1386 13.8303 40.7845 14.7828 40.7845 18.5064H43.1179C43.1178 14.0806 39.4743 12 37.547 11.519Z" fill="#212121"/>
<path d="M43.1176 20.8468H40.7842V23.1873H43.1176V20.8468Z" fill="#212121"/>
</svg>
