<svg width="70" height="72" viewBox="0 0 70 72" fill="none" xmlns="http://www.w3.org/2000/svg">
<g clip-path="url(#clip0_3_7690)">
<path d="M68.4614 34.4207C68.4576 15.8753 53.4656 0.844396 34.9754 0.848145C16.4858 0.851895 1.50017 15.8897 1.50391 34.4352C1.50711 49.0434 10.9252 61.9734 24.7995 66.4168C24.9319 66.4585 25.0697 66.48 25.2081 66.4794C25.4719 66.4789 25.7304 66.4082 25.9573 66.2737C26.2527 66.0986 26.4732 65.82 26.5768 65.4917L35.0315 38.6139C37.3429 38.6021 39.2068 36.7128 39.1945 34.395C39.1827 32.0766 37.2997 30.2071 34.9883 30.2189C34.3666 30.2216 33.753 30.3651 33.1944 30.6389L22.0251 19.4343C21.4707 18.8975 20.5879 18.9131 20.0528 19.4686C19.5305 20.0112 19.5305 20.8704 20.0528 21.413L31.2162 32.623C30.3596 34.3768 30.8493 36.4937 32.3895 37.6894L24.3338 63.3008C8.41354 57.4186 0.261689 39.7056 6.12618 23.7373C11.9907 7.76899 29.6503 -0.407464 45.5706 5.47472C61.4909 11.3569 69.6427 29.0704 63.7782 45.0382C60.913 52.8397 55.0261 59.1488 47.4548 62.5326L46.5842 58.4203C46.4251 57.6645 45.6844 57.1813 44.9308 57.3415C44.6931 57.3923 44.4726 57.5043 44.291 57.6666L35.8978 65.1826C35.322 65.6963 35.2708 66.5807 35.7835 67.1581C35.9501 67.3456 36.1637 67.4849 36.403 67.5615L47.1188 70.9919C47.8521 71.2282 48.6377 70.8237 48.8732 70.0877C48.948 69.8552 48.9603 69.6077 48.9101 69.3688L48.0545 65.3336C60.4452 60.0943 68.4902 47.9078 68.4614 34.4207ZM34.9829 33.0215C35.753 33.0215 36.3779 33.6483 36.3779 34.4207C36.3779 35.1937 35.753 35.8199 34.9829 35.8199C34.2123 35.8199 33.588 35.1937 33.588 34.4207C33.588 33.6483 34.2123 33.0215 34.9829 33.0215ZM39.5774 65.6347L44.3551 61.3601L45.6737 67.592L39.5774 65.6347Z" fill="#212121"/>
<path d="M33.5879 7.83642V10.6348C33.5879 11.4077 34.2122 12.0339 34.9828 12.0339C35.753 12.0339 36.3778 11.4077 36.3778 10.6348V7.83642C36.3778 7.06399 35.753 6.43726 34.9828 6.43726C34.2122 6.43726 33.5879 7.06399 33.5879 7.83642Z" fill="#2196F3"/>
<path d="M8.47894 33.0215C7.7083 33.0215 7.08398 33.6482 7.08398 34.4207C7.08398 35.1936 7.7083 35.8198 8.47894 35.8198H11.2689C12.0395 35.8198 12.6638 35.1936 12.6638 34.4207C12.6638 33.6482 12.0395 33.0215 11.2689 33.0215H8.47894Z" fill="#2196F3"/>
<path d="M61.4866 35.8198C62.2573 35.8198 62.8816 35.1936 62.8816 34.4207C62.8816 33.6482 62.2573 33.0215 61.4866 33.0215H58.6967C57.9266 33.0215 57.3018 33.6482 57.3018 34.4207C57.3018 35.1936 57.9266 35.8198 58.6967 35.8198H61.4866Z" fill="#2196F3"/>
</g>
<defs>
<clipPath id="clip0_3_7690">
<rect width="70" height="70.2113" fill="white" transform="translate(0 0.848145)"/>
</clipPath>
</defs>
</svg>
