<svg width="70" height="71" viewBox="0 0 70 71" fill="none" xmlns="http://www.w3.org/2000/svg">
<g clip-path="url(#clip0_3_7699)">
<path d="M32.6494 33.4546H34.9815V43.9808H32.6494V33.4546Z" fill="#2196F3"/>
<path d="M41.978 38.1329H44.3101V43.9808H41.978V38.1329Z" fill="#2196F3"/>
<path d="M23.3213 41.6416H25.6534V43.9807H23.3213V41.6416Z" fill="#2196F3"/>
<path d="M16.3247 40.472H18.6568V43.9808H16.3247V40.472Z" fill="#2196F3"/>
<path d="M3.49817 62.694H59.4689C61.4007 62.694 62.967 61.1229 62.967 59.1853V54.507C62.967 52.5693 61.4007 50.9982 59.4689 50.9982H58.3028V21.8314L64.9262 15.5381C66.4635 16.2982 68.3242 15.8367 69.3302 14.4439C70.3369 13.0516 70.1957 11.1344 68.9966 9.90548C67.7975 8.67651 65.8901 8.49319 64.4798 9.47145C63.0701 10.4503 62.569 12.3057 63.2933 13.8642L58.3028 18.6093V15.911C58.3028 13.9733 56.7365 12.4022 54.8046 12.4022H8.16239C6.23054 12.4022 4.66422 13.9733 4.66422 15.911V50.9982H3.49817C1.56632 50.9982 0 52.5693 0 54.507V59.1853C0 61.1229 1.56632 62.694 3.49817 62.694ZM66.4652 11.2327C67.1091 11.2327 67.6312 11.7564 67.6312 12.4022C67.6312 13.0481 67.1091 13.5718 66.4652 13.5718C65.8212 13.5718 65.2991 13.0481 65.2991 12.4022C65.2991 11.7564 65.8212 11.2327 66.4652 11.2327ZM6.99634 15.911C6.99634 15.2651 7.51844 14.7414 8.16239 14.7414H54.8046C55.4486 14.7414 55.9707 15.2651 55.9707 15.911V20.8228L53.6386 23.0455V18.2501C53.6386 17.6042 53.1165 17.0805 52.4725 17.0805H10.4945C9.85055 17.0805 9.32845 17.6042 9.32845 18.2501V47.4895C9.32845 48.1354 9.85055 48.6591 10.4945 48.6591H52.4725C53.1165 48.6591 53.6386 48.1354 53.6386 47.4895V26.263L55.9707 24.0466V50.9982H6.99634V15.911ZM17.4908 31.1155C15.9131 31.1109 14.5279 32.1651 14.1083 33.6905C13.6886 35.2158 14.3383 36.8337 15.6951 37.6412C17.0513 38.4487 18.7793 38.246 19.9129 37.1455L23.9662 39.1854C24.4371 39.4218 25.0081 39.3111 25.3583 38.9164L33.9745 29.1938L42.4443 35.5596C42.8987 35.9011 43.5329 35.8646 43.9452 35.4734L51.3065 28.4793V46.3199H11.6606V19.4197H51.3065V25.2567L43.0564 33.0931L34.5154 26.6707C34.0303 26.3064 33.3476 26.3749 32.9445 26.8289L24.2099 36.6864L20.9446 35.0485C20.9685 34.908 20.9833 34.7664 20.989 34.6242C20.989 32.6865 19.4227 31.1155 17.4908 31.1155ZM18.6569 34.6242C18.6569 35.2701 18.1348 35.7938 17.4908 35.7938C16.8469 35.7938 16.3248 35.2701 16.3248 34.6242C16.3248 33.9783 16.8469 33.4546 17.4908 33.4546C18.1348 33.4546 18.6569 33.9783 18.6569 34.6242ZM25.6532 53.3374H37.3138V54.507C37.3138 55.1529 36.7917 55.6765 36.1477 55.6765H26.8193C26.1753 55.6765 25.6532 55.1529 25.6532 54.507V53.3374ZM2.33211 54.507C2.33211 53.8611 2.85422 53.3374 3.49817 53.3374H23.3211V54.507C23.3211 56.4446 24.8874 58.0157 26.8193 58.0157H36.1477C38.0796 58.0157 39.6459 56.4446 39.6459 54.507V53.3374H59.4689C60.1128 53.3374 60.6349 53.8611 60.6349 54.507V59.1853C60.6349 59.8312 60.1128 60.3548 59.4689 60.3548H3.49817C2.85422 60.3548 2.33211 59.8312 2.33211 59.1853V54.507Z" fill="#212121"/>
</g>
<defs>
<clipPath id="clip0_3_7699">
<rect width="70" height="70.2113" fill="white" transform="translate(0 0.620728)"/>
</clipPath>
</defs>
</svg>
